<svg xmlns="http://www.w3.org/2000/svg" viewBox="0 0 1000 500" class="world-map-svg">
  <style>
    .country { fill: #e5e5e5; stroke: #fff; stroke-width: 0.5; transition: fill 0.3s ease; cursor: pointer; }
    .country:hover { fill: #ccc; }
    .country.visited { fill: rgba(30, 90, 255, 0.4); }
    .country.visited:hover { fill: rgba(30, 90, 255, 0.6); }
    .country.lived { fill: #1E5AFF; }
    .country.lived:hover { fill: #0040dd; }
  </style>
  
  <!-- North America -->
  <path id="CA" class="country" data-name="Canada" d="M140,50 L280,50 L300,80 L320,70 L340,90 L300,120 L280,110 L240,120 L200,130 L160,120 L120,100 L100,80 L120,60 Z"/>
  <path id="US" class="country" data-name="United States" d="M120,130 L280,120 L300,130 L280,180 L260,200 L200,210 L160,200 L120,180 L100,160 Z M40,160 L80,150 L90,180 L60,200 L30,190 Z"/>
  <path id="MX" class="country" data-name="Mexico" d="M120,200 L180,200 L200,220 L180,260 L140,280 L100,260 L90,230 Z"/>
  
  <!-- Central America & Caribbean -->
  <path id="GT" class="country" data-name="Guatemala" d="M140,280 L160,275 L165,290 L145,295 Z"/>
  <path id="BZ" class="country" data-name="Belize" d="M165,275 L175,275 L175,285 L165,285 Z"/>
  <path id="HN" class="country" data-name="Honduras" d="M165,290 L190,285 L195,300 L170,305 Z"/>
  <path id="SV" class="country" data-name="El Salvador" d="M145,300 L165,295 L165,305 L145,310 Z"/>
  <path id="NI" class="country" data-name="Nicaragua" d="M170,305 L195,300 L200,320 L175,325 Z"/>
  <path id="CR" class="country" data-name="Costa Rica" d="M175,325 L195,320 L200,340 L180,345 Z"/>
  <path id="PA" class="country" data-name="Panama" d="M180,345 L210,340 L220,350 L195,360 Z"/>
  <path id="CU" class="country" data-name="Cuba" d="M200,240 L260,235 L265,250 L210,255 Z"/>
  <path id="JM" class="country" data-name="Jamaica" d="M230,260 L250,258 L252,268 L232,270 Z"/>
  <path id="DO" class="country" data-name="Dominican Republic" d="M280,255 L300,252 L302,265 L282,268 Z"/>
  <path id="PR" class="country" data-name="Puerto Rico" d="M305,260 L320,258 L321,266 L306,268 Z"/>
  
  <!-- South America -->
  <path id="CO" class="country" data-name="Colombia" d="M220,310 L270,300 L290,330 L260,370 L220,360 Z"/>
  <path id="VE" class="country" data-name="Venezuela" d="M270,300 L330,290 L340,320 L290,330 Z"/>
  <path id="GY" class="country" data-name="Guyana" d="M330,300 L355,295 L360,320 L340,325 Z"/>
  <path id="SR" class="country" data-name="Suriname" d="M355,300 L375,298 L378,318 L358,320 Z"/>
  <path id="EC" class="country" data-name="Ecuador" d="M200,350 L240,345 L245,380 L205,385 Z"/>
  <path id="PE" class="country" data-name="Peru" d="M205,385 L260,370 L280,420 L240,450 L200,430 Z"/>
  <path id="BR" class="country" data-name="Brazil" d="M260,320 L380,310 L400,380 L360,450 L280,470 L240,450 L280,380 Z"/>
  <path id="BO" class="country" data-name="Bolivia" d="M260,420 L300,410 L310,450 L270,460 Z"/>
  <path id="PY" class="country" data-name="Paraguay" d="M300,450 L330,445 L335,475 L305,480 Z"/>
  <path id="CL" class="country" data-name="Chile" d="M240,450 L260,445 L270,500 L250,500 Z"/>
  <path id="AR" class="country" data-name="Argentina" d="M260,460 L320,455 L330,500 L270,500 Z"/>
  <path id="UY" class="country" data-name="Uruguay" d="M320,470 L340,468 L342,490 L322,492 Z"/>
  
  <!-- Europe -->
  <path id="IS" class="country" data-name="Iceland" d="M400,45 L430,42 L435,58 L405,60 Z"/>
  <path id="NO" class="country" data-name="Norway" d="M480,30 L510,25 L520,80 L490,85 Z"/>
  <path id="SE" class="country" data-name="Sweden" d="M510,40 L535,35 L545,95 L520,100 Z"/>
  <path id="FI" class="country" data-name="Finland" d="M540,35 L570,30 L580,80 L550,85 Z"/>
  <path id="RU" class="country" data-name="Russia" d="M580,30 L900,25 L920,150 L700,180 L600,160 L570,100 Z"/>
  <path id="EE" class="country" data-name="Estonia" d="M545,90 L565,88 L567,100 L547,102 Z"/>
  <path id="LV" class="country" data-name="Latvia" d="M545,102 L570,100 L572,115 L547,117 Z"/>
  <path id="LT" class="country" data-name="Lithuania" d="M540,117 L565,115 L568,130 L543,132 Z"/>
  <path id="GB" class="country" data-name="United Kingdom" d="M430,85 L455,80 L465,120 L440,125 Z"/>
  <path id="IE" class="country" data-name="Ireland" d="M410,95 L430,92 L435,115 L415,118 Z"/>
  <path id="NL" class="country" data-name="Netherlands" d="M465,105 L480,103 L482,115 L467,117 Z"/>
  <path id="BE" class="country" data-name="Belgium" d="M460,118 L478,116 L480,128 L462,130 Z"/>
  <path id="DE" class="country" data-name="Germany" d="M480,100 L520,95 L530,140 L490,145 Z"/>
  <path id="PL" class="country" data-name="Poland" d="M520,100 L560,95 L570,140 L530,145 Z"/>
  <path id="CZ" class="country" data-name="Czechia" d="M500,130 L530,128 L532,145 L502,147 Z"/>
  <path id="SK" class="country" data-name="Slovakia" d="M530,135 L555,133 L557,148 L532,150 Z"/>
  <path id="AT" class="country" data-name="Austria" d="M495,148 L530,145 L532,162 L497,165 Z"/>
  <path id="CH" class="country" data-name="Switzerland" d="M475,150 L495,148 L497,163 L477,165 Z"/>
  <path id="FR" class="country" data-name="France" d="M435,125 L480,120 L490,175 L445,180 Z"/>
  <path id="ES" class="country" data-name="Spain" d="M420,170 L470,165 L475,210 L425,215 Z"/>
  <path id="PT" class="country" data-name="Portugal" d="M405,175 L420,173 L422,210 L407,212 Z"/>
  <path id="IT" class="country" data-name="Italy" d="M485,160 L515,155 L530,210 L495,215 Z"/>
  <path id="HU" class="country" data-name="Hungary" d="M530,150 L560,148 L562,168 L532,170 Z"/>
  <path id="RO" class="country" data-name="Romania" d="M550,155 L590,150 L595,180 L555,185 Z"/>
  <path id="BG" class="country" data-name="Bulgaria" d="M555,180 L590,175 L593,200 L558,205 Z"/>
  <path id="GR" class="country" data-name="Greece" d="M540,200 L570,195 L575,235 L545,240 Z"/>
  <path id="HR" class="country" data-name="Croatia" d="M515,160 L540,158 L542,180 L517,182 Z"/>
  <path id="RS" class="country" data-name="Serbia" d="M540,170 L560,168 L562,190 L542,192 Z"/>
  <path id="UA" class="country" data-name="Ukraine" d="M560,120 L630,110 L645,170 L575,180 Z"/>
  <path id="BY" class="country" data-name="Belarus" d="M555,105 L590,100 L595,130 L560,135 Z"/>
  
  <!-- Middle East -->
  <path id="TR" class="country" data-name="Turkey" d="M550,190 L620,180 L640,210 L560,220 Z"/>
  <path id="SY" class="country" data-name="Syria" d="M600,210 L630,205 L635,235 L605,240 Z"/>
  <path id="IQ" class="country" data-name="Iraq" d="M620,220 L660,215 L670,260 L630,265 Z"/>
  <path id="IR" class="country" data-name="Iran" d="M660,200 L720,190 L740,270 L680,280 Z"/>
  <path id="SA" class="country" data-name="Saudi Arabia" d="M600,250 L680,240 L700,310 L620,320 Z"/>
  <path id="AE" class="country" data-name="United Arab Emirates" d="M680,280 L710,275 L715,300 L685,305 Z"/>
  <path id="IL" class="country" data-name="Israel" d="M590,235 L600,233 L602,260 L592,262 Z"/>
  <path id="JO" class="country" data-name="Jordan" d="M600,245 L620,242 L625,270 L605,273 Z"/>
  <path id="LB" class="country" data-name="Lebanon" d="M595,225 L605,223 L607,238 L597,240 Z"/>
  <path id="KW" class="country" data-name="Kuwait" d="M655,260 L670,258 L672,275 L657,277 Z"/>
  <path id="QA" class="country" data-name="Qatar" d="M678,290 L688,288 L689,302 L679,304 Z"/>
  <path id="OM" class="country" data-name="Oman" d="M700,290 L730,285 L740,330 L710,335 Z"/>
  <path id="YE" class="country" data-name="Yemen" d="M640,310 L700,300 L710,340 L650,350 Z"/>
  
  <!-- Africa -->
  <path id="MA" class="country" data-name="Morocco" d="M400,210 L450,205 L455,250 L405,255 Z"/>
  <path id="DZ" class="country" data-name="Algeria" d="M450,200 L520,190 L530,270 L460,280 Z"/>
  <path id="TN" class="country" data-name="Tunisia" d="M485,195 L505,192 L510,225 L490,228 Z"/>
  <path id="LY" class="country" data-name="Libya" d="M500,220 L570,210 L580,290 L510,300 Z"/>
  <path id="EG" class="country" data-name="Egypt" d="M560,225 L610,220 L620,290 L570,295 Z"/>
  <path id="SD" class="country" data-name="Sudan" d="M570,300 L630,290 L640,370 L580,380 Z"/>
  <path id="ET" class="country" data-name="Ethiopia" d="M620,340 L680,330 L690,390 L630,400 Z"/>
  <path id="KE" class="country" data-name="Kenya" d="M630,380 L680,370 L690,430 L640,440 Z"/>
  <path id="TZ" class="country" data-name="Tanzania" d="M620,420 L680,410 L690,470 L630,480 Z"/>
  <path id="UG" class="country" data-name="Uganda" d="M610,390 L640,385 L645,420 L615,425 Z"/>
  <path id="NG" class="country" data-name="Nigeria" d="M470,320 L530,310 L540,380 L480,390 Z"/>
  <path id="GH" class="country" data-name="Ghana" d="M440,340 L465,335 L470,385 L445,390 Z"/>
  <path id="CI" class="country" data-name="Côte d'Ivoire" d="M415,345 L445,340 L450,390 L420,395 Z"/>
  <path id="SN" class="country" data-name="Senegal" d="M385,310 L415,305 L420,340 L390,345 Z"/>
  <path id="ZA" class="country" data-name="South Africa" d="M560,450 L640,440 L650,500 L570,500 Z"/>
  <path id="NA" class="country" data-name="Namibia" d="M530,430 L580,420 L590,480 L540,490 Z"/>
  <path id="BW" class="country" data-name="Botswana" d="M570,430 L610,425 L615,470 L575,475 Z"/>
  <path id="ZW" class="country" data-name="Zimbabwe" d="M595,420 L635,415 L640,455 L600,460 Z"/>
  <path id="ZM" class="country" data-name="Zambia" d="M580,400 L630,395 L635,435 L585,440 Z"/>
  <path id="MZ" class="country" data-name="Mozambique" d="M630,420 L670,415 L680,480 L640,485 Z"/>
  <path id="AO" class="country" data-name="Angola" d="M520,390 L580,380 L590,450 L530,460 Z"/>
  <path id="CD" class="country" data-name="DR Congo" d="M540,350 L610,340 L620,420 L550,430 Z"/>
  <path id="CM" class="country" data-name="Cameroon" d="M500,340 L540,335 L550,390 L510,395 Z"/>
  
  <!-- Asia -->
  <path id="KZ" class="country" data-name="Kazakhstan" d="M640,110 L760,100 L780,170 L660,180 Z"/>
  <path id="UZ" class="country" data-name="Uzbekistan" d="M680,160 L730,155 L740,195 L690,200 Z"/>
  <path id="TM" class="country" data-name="Turkmenistan" d="M660,180 L710,175 L720,210 L670,215 Z"/>
  <path id="AF" class="country" data-name="Afghanistan" d="M720,190 L770,185 L780,230 L730,235 Z"/>
  <path id="PK" class="country" data-name="Pakistan" d="M730,220 L790,210 L810,280 L750,290 Z"/>
  <path id="IN" class="country" data-name="India" d="M750,250 L840,240 L870,370 L780,380 Z"/>
  <path id="NP" class="country" data-name="Nepal" d="M790,260 L830,255 L835,280 L795,285 Z"/>
  <path id="BD" class="country" data-name="Bangladesh" d="M835,280 L860,275 L865,310 L840,315 Z"/>
  <path id="LK" class="country" data-name="Sri Lanka" d="M810,360 L830,355 L835,390 L815,395 Z"/>
  <path id="MM" class="country" data-name="Myanmar" d="M840,280 L870,275 L880,350 L850,355 Z"/>
  <path id="TH" class="country" data-name="Thailand" d="M855,310 L890,305 L900,380 L865,385 Z"/>
  <path id="VN" class="country" data-name="Vietnam" d="M880,290 L910,285 L920,370 L890,375 Z"/>
  <path id="KH" class="country" data-name="Cambodia" d="M875,350 L905,345 L910,380 L880,385 Z"/>
  <path id="LA" class="country" data-name="Laos" d="M870,310 L895,305 L900,350 L875,355 Z"/>
  <path id="MY" class="country" data-name="Malaysia" d="M860,380 L910,375 L920,410 L870,415 Z"/>
  <path id="SG" class="country" data-name="Singapore" d="M890,400 L900,398 L902,408 L892,410 Z"/>
  <path id="ID" class="country" data-name="Indonesia" d="M850,400 L960,390 L980,450 L870,460 Z"/>
  <path id="PH" class="country" data-name="Philippines" d="M920,320 L950,315 L960,380 L930,385 Z"/>
  <path id="CN" class="country" data-name="China" d="M780,150 L920,140 L940,280 L820,290 L780,250 Z"/>
  <path id="MN" class="country" data-name="Mongolia" d="M780,120 L880,110 L890,160 L790,170 Z"/>
  <path id="KR" class="country" data-name="South Korea" d="M920,200 L940,198 L945,230 L925,232 Z"/>
  <path id="KP" class="country" data-name="North Korea" d="M915,180 L940,178 L945,200 L920,202 Z"/>
  <path id="JP" class="country" data-name="Japan" d="M945,180 L975,175 L985,250 L955,255 Z"/>
  <path id="TW" class="country" data-name="Taiwan" d="M920,270 L935,268 L938,295 L923,297 Z"/>
  
  <!-- Oceania -->
  <path id="AU" class="country" data-name="Australia" d="M850,420 L970,410 L990,500 L870,500 Z"/>
  <path id="NZ" class="country" data-name="New Zealand" d="M985,470 L1000,465 L1000,500 L985,500 Z"/>
  <path id="PG" class="country" data-name="Papua New Guinea" d="M940,390 L980,385 L985,420 L945,425 Z"/>
</svg>

